<svg xmlns="http://www.w3.org/2000/svg" version="1.1" xmlns:xlink="http://www.w3.org/1999/xlink" viewBox="0 0 200 200"><rect width="200" height="200" fill="url('#gradient')"></rect><defs><linearGradient id="gradient" gradientTransform="rotate(115 0.5 0.5)"><stop offset="0%" stop-color="#000000"></stop><stop offset="100%" stop-color="#151515"></stop></linearGradient></defs><g><g fill="#ffffff" transform="matrix(1.3959670548139733,0,0,1.3959670548139733,4.040991606794606,110.33249980457396)" stroke="#a8dc9f" stroke-width="0"><path d="M9.98 0L9.15-2.66L4.45-2.66L3.63 0L-0.03 0L5.19-14.22L8.41-14.22L13.66 0L9.98 0ZM6.80-10.23L5.27-5.30L8.33-5.30L6.80-10.23ZM20.08-2.97L20.08-2.97Q20.08-3.39 19.64-3.64Q19.20-3.90 17.97-4.17Q16.74-4.44 15.94-4.89Q15.14-5.33 14.72-5.97Q14.30-6.60 14.30-7.42L14.30-7.42Q14.30-8.88 15.50-9.82Q16.70-10.76 18.64-10.76L18.64-10.76Q20.73-10.76 22.00-9.81Q23.27-8.87 23.27-7.32L23.27-7.32L19.97-7.32Q19.97-8.59 18.63-8.59L18.63-8.59Q18.12-8.59 17.76-8.31Q17.41-8.02 17.41-7.59L17.41-7.59Q17.41-7.15 17.84-6.88Q18.27-6.60 19.21-6.43Q20.16-6.25 20.87-6.01L20.87-6.01Q23.25-5.19 23.25-3.07L23.25-3.07Q23.25-1.62 21.97-0.71Q20.68 0.20 18.64 0.20L18.64 0.20Q17.29 0.20 16.22-0.29Q15.16-0.78 14.56-1.62Q13.96-2.46 13.96-3.39L13.96-3.39L17.04-3.39Q17.06-2.66 17.53-2.32Q18.00-1.98 18.73-1.98L18.73-1.98Q19.40-1.98 19.74-2.26Q20.08-2.53 20.08-2.97ZM30.32-2.97L30.32-2.97Q30.32-3.39 29.88-3.64Q29.44-3.90 28.21-4.17Q26.98-4.44 26.18-4.89Q25.38-5.33 24.96-5.97Q24.54-6.60 24.54-7.42L24.54-7.42Q24.54-8.88 25.74-9.82Q26.94-10.76 28.89-10.76L28.89-10.76Q30.98-10.76 32.25-9.81Q33.52-8.87 33.52-7.32L33.52-7.32L30.21-7.32Q30.21-8.59 28.88-8.59L28.88-8.59Q28.36-8.59 28.01-8.31Q27.66-8.02 27.66-7.59L27.66-7.59Q27.66-7.15 28.09-6.88Q28.52-6.60 29.46-6.43Q30.40-6.25 31.11-6.01L31.11-6.01Q33.50-5.19 33.50-3.07L33.50-3.07Q33.50-1.62 32.21-0.71Q30.93 0.20 28.89 0.20L28.89 0.20Q27.53 0.20 26.46-0.29Q25.40-0.78 24.80-1.62Q24.21-2.46 24.21-3.39L24.21-3.39L27.29-3.39Q27.30-2.66 27.77-2.32Q28.24-1.98 28.97-1.98L28.97-1.98Q29.65-1.98 29.99-2.26Q30.32-2.53 30.32-2.97ZM40.15 0.20L40.15 0.20Q37.71 0.20 36.21-1.25Q34.71-2.71 34.71-5.03L34.71-5.03L34.71-5.30Q34.71-6.92 35.31-8.16Q35.91-9.40 37.06-10.08Q38.21-10.76 39.79-10.76L39.79-10.76Q42.02-10.76 43.31-9.38Q44.60-8.00 44.60-5.53L44.60-5.53L44.60-4.25L38.06-4.25Q38.23-3.36 38.83-2.85Q39.42-2.34 40.37-2.34L40.37-2.34Q41.93-2.34 42.81-3.44L42.81-3.44L44.32-1.66Q43.70-0.81 42.57-0.31Q41.45 0.20 40.15 0.20ZM39.78-8.22L39.78-8.22Q38.33-8.22 38.06-6.31L38.06-6.31L41.38-6.31L41.38-6.56Q41.40-7.35 40.98-7.79Q40.56-8.22 39.78-8.22ZM46.46-13.19L49.76-13.19L49.76-10.57L51.49-10.57L51.49-8.28L49.76-8.28L49.76-3.45Q49.76-2.85 49.97-2.62Q50.19-2.38 50.82-2.38L50.82-2.38Q51.31-2.38 51.64-2.44L51.64-2.44L51.64-0.09Q50.75 0.20 49.79 0.20L49.79 0.20Q48.09 0.20 47.28-0.61Q46.46-1.41 46.46-3.04L46.46-3.04L46.46-8.28L45.12-8.28L45.12-10.57L46.46-10.57L46.46-13.19ZM69.56-7.60L69.56-1.76Q68.77-0.88 67.25-0.34Q65.72 0.20 63.91 0.20L63.91 0.20Q61.11 0.20 59.44-1.51Q57.77-3.22 57.66-6.27L57.66-6.27L57.65-7.50Q57.65-9.60 58.39-11.17Q59.13-12.73 60.51-13.58Q61.89-14.42 63.71-14.42L63.71-14.42Q66.37-14.42 67.84-13.21Q69.31-11.99 69.55-9.58L69.55-9.58L66.25-9.58Q66.07-10.77 65.49-11.28Q64.90-11.79 63.83-11.79L63.83-11.79Q62.54-11.79 61.84-10.69Q61.13-9.60 61.12-7.57L61.12-7.57L61.12-6.71Q61.12-4.58 61.85-3.51Q62.58-2.44 64.14-2.44L64.14-2.44Q65.48-2.44 66.13-3.04L66.13-3.04L66.13-5.24L63.75-5.24L63.75-7.60L69.56-7.60ZM77.79 0L77.70-1.14Q76.65 0.20 74.87 0.20L74.87 0.20Q73.13 0.20 72.24-0.82Q71.35-1.83 71.35-3.72L71.35-3.72L71.35-10.57L74.64-10.57L74.64-3.70Q74.64-2.34 75.96-2.34L75.96-2.34Q77.09-2.34 77.57-3.15L77.57-3.15L77.57-10.57L80.88-10.57L80.88 0L77.79 0ZM91.92 0L88.63 0Q88.46-0.32 88.32-0.95L88.32-0.95Q87.41 0.20 85.78 0.20L85.78 0.20Q84.29 0.20 83.24-0.71Q82.20-1.61 82.20-2.98L82.20-2.98Q82.20-4.70 83.47-5.58Q84.74-6.46 87.16-6.46L87.16-6.46L88.17-6.46L88.17-7.01Q88.17-8.47 86.91-8.47L86.91-8.47Q85.74-8.47 85.74-7.31L85.74-7.31L82.45-7.31Q82.45-8.85 83.75-9.80Q85.06-10.76 87.08-10.76Q89.10-10.76 90.27-9.78Q91.45-8.79 91.47-7.07L91.47-7.07L91.47-2.39Q91.49-0.94 91.92-0.17L91.92-0.17L91.92 0ZM86.57-2.15L86.57-2.15Q87.19-2.15 87.59-2.41Q88.00-2.68 88.17-3.01L88.17-3.01L88.17-4.70L87.22-4.70Q85.50-4.70 85.50-3.15L85.50-3.15Q85.50-2.71 85.80-2.43Q86.10-2.15 86.57-2.15ZM99.75-10.64L99.69-7.59L98.60-7.67Q97.05-7.67 96.61-6.69L96.61-6.69L96.61 0L93.32 0L93.32-10.57L96.41-10.57L96.51-9.21Q97.34-10.76 98.83-10.76L98.83-10.76Q99.36-10.76 99.75-10.64L99.75-10.64ZM100.27-5.36L100.27-5.36Q100.27-7.87 101.36-9.32Q102.44-10.76 104.38-10.76L104.38-10.76Q105.80-10.76 106.77-9.65L106.77-9.65L106.77-15L110.07-15L110.07 0L107.11 0L106.94-1.13Q105.93 0.20 104.37 0.20L104.37 0.20Q102.48 0.20 101.38-1.25Q100.27-2.70 100.27-5.36ZM103.57-5.76L103.56-5.16Q103.56-2.34 105.21-2.34L105.21-2.34Q106.30-2.34 106.77-3.26L106.77-3.26L106.77-7.29Q106.32-8.22 105.22-8.22L105.22-8.22Q103.70-8.22 103.57-5.76L103.57-5.76ZM115.41-10.57L115.41 0L112.11 0L112.11-10.57L115.41-10.57ZM111.91-13.29L111.91-13.29Q111.91-13.99 112.42-14.44Q112.93-14.89 113.74-14.89Q114.55-14.89 115.06-14.44Q115.57-13.99 115.57-13.29Q115.57-12.59 115.06-12.14Q114.55-11.69 113.74-11.69Q112.93-11.69 112.42-12.14Q111.91-12.59 111.91-13.29ZM126.68 0L123.39 0Q123.21-0.32 123.08-0.95L123.08-0.95Q122.17 0.20 120.54 0.20L120.54 0.20Q119.04 0.20 118.00-0.71Q116.95-1.61 116.95-2.98L116.95-2.98Q116.95-4.70 118.22-5.58Q119.49-6.46 121.91-6.46L121.91-6.46L122.93-6.46L122.93-7.01Q122.93-8.47 121.67-8.47L121.67-8.47Q120.50-8.47 120.50-7.31L120.50-7.31L117.21-7.31Q117.21-8.85 118.51-9.80Q119.81-10.76 121.84-10.76Q123.86-10.76 125.03-9.78Q126.20-8.79 126.23-7.07L126.23-7.07L126.23-2.39Q126.25-0.94 126.68-0.17L126.68-0.17L126.68 0ZM121.33-2.15L121.33-2.15Q121.94-2.15 122.35-2.41Q122.75-2.68 122.93-3.01L122.93-3.01L122.93-4.70L121.97-4.70Q120.25-4.70 120.25-3.15L120.25-3.15Q120.25-2.71 120.56-2.43Q120.86-2.15 121.33-2.15ZM127.99-10.57L131.07-10.57L131.18-9.33Q132.28-10.76 134.20-10.76L134.20-10.76Q135.85-10.76 136.67-9.78Q137.48-8.79 137.51-6.81L137.51-6.81L137.51 0L134.21 0L134.21-6.67Q134.21-7.47 133.89-7.85Q133.56-8.22 132.71-8.22L132.71-8.22Q131.75-8.22 131.28-7.46L131.28-7.46L131.28 0L127.99 0L127.99-10.57Z"></path></g></g></svg>